<svg width="512" height="512" viewBox="0 0 512 512" fill="none" xmlns="http://www.w3.org/2000/svg">
<g clip-path="url(#clip0_2_8)">
<rect width="512" height="512" rx="256" fill="#4E9DB8"/>
<g filter="url(#filter0_f_2_8)">
<ellipse cx="221.6" cy="205.901" rx="116" ry="119" transform="rotate(-40.9285 221.6 205.901)" fill="url(#paint0_linear_2_8)"/>
</g>
<g filter="url(#filter1_f_2_8)">
<ellipse cx="90.5316" cy="446.291" rx="116" ry="119" transform="rotate(-118.003 90.5316 446.291)" fill="url(#paint1_linear_2_8)"/>
</g>
<path d="M140.264 248.76C139.466 247.29 138.311 246.177 136.799 245.421C135.329 244.623 133.586 244.224 131.57 244.224C128.084 244.224 125.291 245.379 123.191 247.689C121.091 249.957 120.041 253.002 120.041 256.824C120.041 260.898 121.133 264.09 123.317 266.4C125.543 268.668 128.588 269.802 132.452 269.802C135.098 269.802 137.324 269.13 139.13 267.786C140.978 266.442 142.322 264.51 143.162 261.99H129.491V254.052H152.927V264.069C152.129 266.757 150.764 269.256 148.832 271.566C146.942 273.876 144.527 275.745 141.587 277.173C138.647 278.601 135.329 279.315 131.633 279.315C127.265 279.315 123.359 278.37 119.915 276.48C116.513 274.548 113.846 271.881 111.914 268.479C110.024 265.077 109.079 261.192 109.079 256.824C109.079 252.456 110.024 248.571 111.914 245.169C113.846 241.725 116.513 239.058 119.915 237.168C123.317 235.236 127.202 234.27 131.57 234.27C136.862 234.27 141.314 235.551 144.926 238.113C148.58 240.675 150.995 244.224 152.171 248.76H140.264ZM186.425 271.188H169.919L167.273 279H155.996L171.998 234.774H184.472L200.474 279H189.071L186.425 271.188ZM183.653 262.872L178.172 246.681L172.754 262.872H183.653ZM255.429 234.774V279H244.656V252.477L234.765 279H226.071L216.117 252.414V279H205.344V234.774H218.07L230.481 265.392L242.766 234.774H255.429ZM273.95 243.405V252.351H288.377V260.667H273.95V270.369H290.267V279H263.177V234.774H290.267V243.405H273.95ZM319.814 279L310.616 262.305H308.033V279H297.26V234.774H315.341C318.827 234.774 321.788 235.383 324.224 236.601C326.702 237.819 328.55 239.499 329.768 241.641C330.986 243.741 331.595 246.093 331.595 248.697C331.595 251.637 330.755 254.262 329.075 256.572C327.437 258.882 325.001 260.52 321.767 261.486L331.973 279H319.814ZM308.033 254.682H314.711C316.685 254.682 318.155 254.199 319.121 253.233C320.129 252.267 320.633 250.902 320.633 249.138C320.633 247.458 320.129 246.135 319.121 245.169C318.155 244.203 316.685 243.72 314.711 243.72H308.033V254.682ZM367.711 279.441C364.477 279.441 361.579 278.916 359.017 277.866C356.455 276.816 354.397 275.262 352.843 273.204C351.331 271.146 350.533 268.668 350.449 265.77H361.915C362.083 267.408 362.65 268.668 363.616 269.55C364.582 270.39 365.842 270.81 367.396 270.81C368.992 270.81 370.252 270.453 371.176 269.739C372.1 268.983 372.562 267.954 372.562 266.652C372.562 265.56 372.184 264.657 371.428 263.943C370.714 263.229 369.811 262.641 368.719 262.179C367.669 261.717 366.157 261.192 364.183 260.604C361.327 259.722 358.996 258.84 357.19 257.958C355.384 257.076 353.83 255.774 352.528 254.052C351.226 252.33 350.575 250.083 350.575 247.311C350.575 243.195 352.066 239.982 355.048 237.672C358.03 235.32 361.915 234.144 366.703 234.144C371.575 234.144 375.502 235.32 378.484 237.672C381.466 239.982 383.062 243.216 383.272 247.374H371.617C371.533 245.946 371.008 244.833 370.042 244.035C369.076 243.195 367.837 242.775 366.325 242.775C365.023 242.775 363.973 243.132 363.175 243.846C362.377 244.518 361.978 245.505 361.978 246.807C361.978 248.235 362.65 249.348 363.994 250.146C365.338 250.944 367.438 251.805 370.294 252.729C373.15 253.695 375.46 254.619 377.224 255.501C379.03 256.383 380.584 257.664 381.886 259.344C383.188 261.024 383.839 263.187 383.839 265.833C383.839 268.353 383.188 270.642 381.886 272.7C380.626 274.758 378.778 276.396 376.342 277.614C373.906 278.832 371.029 279.441 367.711 279.441ZM401.242 234.774V279H390.469V234.774H401.242Z" fill="white"/>
<g filter="url(#filter2_f_2_8)">
<ellipse cx="496.914" cy="9.3373" rx="116" ry="119" transform="rotate(52.8173 496.914 9.3373)" fill="url(#paint2_linear_2_8)"/>
</g>
</g>
<defs>
<filter id="filter0_f_2_8" x="77.3019" y="61.177" width="288.596" height="289.449" filterUnits="userSpaceOnUse" color-interpolation-filters="sRGB">
<feFlood flood-opacity="0" result="BackgroundImageFix"/>
<feBlend mode="normal" in="SourceGraphic" in2="BackgroundImageFix" result="shape"/>
<feGaussianBlur stdDeviation="13.5" result="effect1_foregroundBlur_2_8"/>
</filter>
<filter id="filter1_f_2_8" x="-54.8381" y="302.601" width="290.74" height="287.38" filterUnits="userSpaceOnUse" color-interpolation-filters="sRGB">
<feFlood flood-opacity="0" result="BackgroundImageFix"/>
<feBlend mode="normal" in="SourceGraphic" in2="BackgroundImageFix" result="shape"/>
<feGaussianBlur stdDeviation="13.5" result="effect1_foregroundBlur_2_8"/>
</filter>
<filter id="filter2_f_2_8" x="351.994" y="-134.773" width="289.841" height="288.22" filterUnits="userSpaceOnUse" color-interpolation-filters="sRGB">
<feFlood flood-opacity="0" result="BackgroundImageFix"/>
<feBlend mode="normal" in="SourceGraphic" in2="BackgroundImageFix" result="shape"/>
<feGaussianBlur stdDeviation="13.5" result="effect1_foregroundBlur_2_8"/>
</filter>
<linearGradient id="paint0_linear_2_8" x1="221.6" y1="86.9013" x2="221.6" y2="324.901" gradientUnits="userSpaceOnUse">
<stop stop-color="#002E3E"/>
<stop offset="0.529412" stop-color="#096382" stop-opacity="0.806723"/>
<stop offset="1" stop-color="#00BFFF" stop-opacity="0"/>
</linearGradient>
<linearGradient id="paint1_linear_2_8" x1="25.5316" y1="337.291" x2="121.532" y2="545.291" gradientUnits="userSpaceOnUse">
<stop stop-color="#023C50"/>
<stop offset="1" stop-color="#003D52" stop-opacity="0"/>
</linearGradient>
<linearGradient id="paint2_linear_2_8" x1="431.914" y1="-99.6627" x2="527.914" y2="108.337" gradientUnits="userSpaceOnUse">
<stop stop-color="#023C50"/>
<stop offset="0.0001"/>
<stop offset="1" stop-color="#003D52" stop-opacity="0"/>
</linearGradient>
<clipPath id="clip0_2_8">
<rect width="512" height="512" rx="256" fill="white"/>
</clipPath>
</defs>
</svg>